<svg width="21" height="37" viewBox="0 0 21 37" fill="none" xmlns="http://www.w3.org/2000/svg">
<path d="M2.76759 35.8398C2.59623 36.2397 2.19639 36.4396 1.56807 36.4396C0.939751 36.4396 0.625591 36.154 0.625591 35.5828C0.625591 35.4686 0.682711 35.2401 0.796951 34.8974C4.33839 27.586 6.79455 22.4166 8.16543 19.3893C9.59343 16.3619 11.1642 12.592 12.8778 8.07952L10.6502 9.70744C9.45063 10.5642 8.53671 11.2782 7.90839 11.8494C7.28007 12.3635 6.85167 12.6206 6.62319 12.6206C6.45183 12.6206 6.36615 12.4778 6.36615 12.1922C6.36615 11.8494 6.68031 11.421 7.30863 10.907C7.93695 10.3358 9.39351 8.90776 11.6783 6.62296C14.0202 4.28104 16.0766 2.25328 17.8473 0.539678C18.0186 0.482559 18.3042 0.453999 18.7041 0.453999C19.161 0.453999 19.618 0.653919 20.075 1.05376C20.5319 1.4536 20.7604 1.882 20.7604 2.33896V2.596C18.7041 5.28064 15.8195 9.93592 12.1067 16.5618C7.93695 24.273 4.82391 30.699 2.76759 35.8398Z" fill="white"/>
</svg>
