<svg width="37" height="39" viewBox="0 0 37 39" fill="none" xmlns="http://www.w3.org/2000/svg">
<path d="M25.2702 38.6673C25.2131 38.7244 25.0417 38.7244 24.7561 38.6673C24.5276 38.6102 24.4134 38.4674 24.4134 38.2389C24.4134 38.0104 24.6133 37.7819 25.0132 37.5534C26.0984 36.9822 26.6411 36.4396 26.6411 35.9255C26.6411 35.1258 25.5844 34.3833 23.4709 33.6978C21.4146 33.0124 19.1584 32.6982 16.7022 32.7554C14.246 32.7554 9.76212 33.9263 3.25044 36.2682C2.45076 36.611 1.7082 36.7823 1.02276 36.7823C0.394438 36.7823 0.0802784 36.4396 0.0802784 35.7542C0.0802784 35.0687 0.565798 34.269 1.53684 33.3551C2.565 32.4983 3.62172 32.0699 4.707 32.0699C8.4198 30.8133 13.0465 28.3571 18.5872 24.7014C24.1278 20.9886 28.2404 17.4472 30.9251 14.0771C33.6097 10.707 34.952 7.96528 34.952 5.85184C34.952 3.56704 33.524 2.42464 30.668 2.42464C27.8692 2.42464 24.6133 3.68128 20.9005 6.19456C17.2448 8.65072 14.9886 11.3068 14.1318 14.1628C13.9604 14.6769 13.7034 14.9339 13.3607 14.9339C13.1893 14.9339 13.1036 14.7911 13.1036 14.5055C13.732 10.6214 15.7026 7.39408 19.0156 4.82368C22.3285 2.25328 26.0699 0.968083 30.2396 0.968083C32.296 0.968083 33.9239 1.56784 35.1234 2.76736C36.2658 4.024 36.837 5.5948 36.837 7.47976C36.837 10.2786 35.8088 12.8205 33.7525 15.1053C31.6962 17.333 29.2115 19.3607 26.2984 21.1886C25.4416 21.7598 24.2135 22.5309 22.6141 23.5019C16.7308 26.9862 12.9894 29.5281 11.39 31.1274C22.0144 31.1274 27.3265 32.6411 27.3265 35.6685C27.3265 37.2107 26.6411 38.2103 25.2702 38.6673Z" fill="white"/>
</svg>
