<svg width="39" height="40" viewBox="0 0 39 40" fill="none" xmlns="http://www.w3.org/2000/svg">
<path d="M7.10596 10.8213C7.27732 7.2799 9.27652 4.68094 13.1036 3.02446C16.9306 1.31086 20.2436 0.454063 23.0424 0.454063C25.8984 0.454063 28.4117 0.768223 30.5823 1.39654C34.8663 2.59606 37.4367 4.5667 38.2935 7.30846C38.4648 7.87966 38.5505 8.4223 38.5505 8.93638C38.5505 10.8785 37.6652 12.6777 35.8944 14.3342C34.1237 15.9336 32.2673 17.1902 30.3252 18.1041C28.3832 18.9609 26.6696 19.5607 25.1844 19.9034C23.7564 20.2461 21.7858 20.646 19.2725 21.1029C23.2709 21.2743 26.1555 22.0454 27.9262 23.4163C29.754 24.7872 30.668 26.4437 30.668 28.3857C30.668 30.3278 29.6684 32.1271 27.6692 33.7836C24.242 36.7538 18.9869 38.5245 11.904 39.0957C11.3328 39.1529 10.3618 39.1814 8.99092 39.1814C7.62003 39.1814 6.07779 38.8387 4.36419 38.1533C2.02227 37.1822 0.851315 35.7542 0.851315 33.8693C0.851315 32.8982 1.22259 31.9557 1.96515 31.0418C2.76483 30.1279 3.93579 29.5567 5.47803 29.3282C6.10635 29.3282 6.42051 29.471 6.42051 29.7566C6.42051 29.9851 6.07779 30.0993 5.39235 30.0993C4.70691 29.9851 4.05003 30.3278 3.42171 31.1275C2.79339 31.8701 2.47923 32.4984 2.47923 33.0125C2.47923 33.4694 2.50779 33.8121 2.56491 34.0406C3.25035 36.2683 6.07779 37.3821 11.0472 37.3821C15.674 37.3821 19.7295 36.2397 23.2138 33.9549C25.6128 32.4698 26.8124 30.6705 26.8124 28.5571C26.8124 25.8153 24.499 23.8733 19.8723 22.7309C17.6446 22.1597 15.9596 21.8741 14.8172 21.8741C13.6748 21.8741 12.7608 21.8741 12.0754 21.8741C11.4471 21.8741 11.1329 21.617 11.1329 21.1029C11.1329 20.4175 11.7898 20.1033 13.1036 20.1605C13.6176 20.1605 14.7315 20.1605 16.4451 20.1605C18.1587 20.1605 20.8148 19.7321 24.4133 18.8753C28.0119 17.9613 30.8393 16.5333 32.8956 14.5913C34.7806 12.6492 35.7231 10.907 35.7231 9.36478C35.7231 7.19422 34.5521 5.48062 32.2102 4.22398C29.9254 2.91022 27.1551 2.25334 23.8992 2.25334C20.7005 2.25334 17.3304 3.08158 13.789 4.73806C10.3047 6.33742 8.50539 8.39374 8.39116 10.907C8.39116 11.4211 8.24836 11.7924 7.96275 12.0209C7.73427 12.2493 7.50579 12.2493 7.27731 12.0209C7.10595 11.7353 7.04883 11.3354 7.10596 10.8213Z" fill="white"/>
</svg>
