<svg width="32" height="40" viewBox="0 0 32 40" fill="none" xmlns="http://www.w3.org/2000/svg">
<path d="M24.6748 21.3318C26.0457 21.6745 26.7311 22.1315 26.7311 22.7027C26.7311 23.2168 26.4741 23.4738 25.96 23.4738V23.3025C25.9029 23.4167 25.8172 23.4738 25.703 23.4738L23.818 23.1311C22.4471 22.9026 21.6189 22.7884 21.3333 22.7884C21.0477 22.7884 20.7906 22.8169 20.5622 22.8741H19.534C18.7914 24.3592 17.0778 27.8435 14.3932 33.327L12.2512 37.8681C12.2512 37.9252 11.8799 38.5821 11.1374 39.8387C10.4519 39.8387 10.1092 39.3817 10.1092 38.4678C10.1092 37.5539 11.223 34.755 13.4507 30.0712C15.6784 25.3302 16.7922 22.9026 16.7922 22.7884C16.7351 22.7313 16.4781 22.7027 16.0211 22.7027C10.8232 22.7027 5.91087 23.4453 1.28415 24.9304C0.427351 24.9304 -0.00104906 24.5305 -0.00104906 23.7309C-0.00104906 23.2739 0.741511 22.5313 2.22663 21.5032L5.05407 19.7039C6.02511 19.0185 7.39599 18.076 9.16671 16.8765C12.8795 14.3061 15.7926 12.2497 17.9061 10.7075C22.5899 7.22318 26.3884 3.68174 29.3015 0.0831829C30.4439 0.0831829 31.0151 1.16846 31.0151 3.33902V4.62422C30.2726 5.25254 28.4447 7.93718 25.5316 12.6781C22.4471 17.4762 20.9049 20.1323 20.9049 20.6464C21.8759 20.9891 23.1326 21.2176 24.6748 21.3318ZM12.851 20.1323L15.8498 20.218L17.3063 20.3037C17.5919 20.3037 17.7633 20.3322 17.8204 20.3893C18.6201 20.3893 21.1905 15.8197 25.5316 6.68054C22.2186 9.4223 18.7343 12.1355 15.0786 14.8201C11.423 17.5048 9.08103 19.2755 8.05287 20.1323H12.851Z" fill="white"/>
</svg>
