<svg width="374" height="44" viewBox="0 0 374 44" fill="none" xmlns="http://www.w3.org/2000/svg">
<path d="M24.6912 28.2563C27.3792 28.2563 28.9758 26.1543 28.9758 22.5947C28.9758 21.2544 28.7195 20.1265 28.2288 19.2549C27.5183 17.8999 26.2952 17.1675 24.7498 17.1675C22.45 17.1675 20.824 18.7129 20.824 20.8809C20.824 22.917 22.2888 24.3965 24.303 24.3965C25.5408 24.3965 26.5442 23.8179 27.0422 22.8145H27.0642C27.0642 22.8145 27.0935 22.8145 27.1008 22.8145C27.1155 22.8145 27.1667 22.8145 27.1667 22.8145C27.1667 25.2314 26.2512 26.6743 24.7058 26.6743C23.7976 26.6743 23.0945 26.1763 22.8528 25.3779H20.9705C21.2854 27.1138 22.7576 28.2563 24.6912 28.2563ZM24.7571 22.895C23.5413 22.895 22.677 22.0308 22.677 20.8223C22.677 19.6431 23.5852 18.7422 24.7644 18.7422C25.9436 18.7422 26.8518 19.6577 26.8518 20.8516C26.8518 22.0308 25.9656 22.895 24.7571 22.895ZM32.2937 26.8794C32.9895 26.8794 33.4656 26.3813 33.4656 25.7222C33.4656 25.0557 32.9895 24.5649 32.2937 24.5649C31.6052 24.5649 31.1218 25.0557 31.1218 25.7222C31.1218 26.3813 31.6052 26.8794 32.2937 26.8794ZM32.2937 21.3862C32.9895 21.3862 33.4656 20.8955 33.4656 20.2363C33.4656 19.5698 32.9895 19.0791 32.2937 19.0791C31.6052 19.0791 31.1218 19.5698 31.1218 20.2363C31.1218 20.8955 31.6052 21.3862 32.2937 21.3862ZM40.7678 28H42.5769V26.0298H44.0051V24.4331H42.5769V17.4312H39.9109C38.0432 20.2437 36.5564 22.5947 35.6042 24.3452V26.0298H40.7678V28ZM37.3547 24.3672C38.5852 22.1992 39.6838 20.4634 40.6946 18.9692H40.7971V24.4771H37.3547V24.3672ZM48.3337 28H50.2234V17.4312H48.3411L45.5798 19.3647V21.1812L48.2092 19.3354H48.3337V28Z" fill="white"/>
<path fill-rule="evenodd" clip-rule="evenodd" d="M338.589 17.16H353.411C354.659 17.16 355.111 17.29 355.568 17.534C356.024 17.778 356.382 18.1362 356.626 18.5925C356.87 19.0487 357 19.5013 357 20.7495V25.0706C357 26.3187 356.87 26.7713 356.626 27.2276C356.382 27.6839 356.024 28.042 355.568 28.286C355.111 28.5301 354.659 28.66 353.411 28.66H338.589C337.341 28.66 336.889 28.5301 336.432 28.286C335.976 28.042 335.618 27.6839 335.374 27.2276C335.13 26.7713 335 26.3187 335 25.0706V20.7495C335 19.5013 335.13 19.0487 335.374 18.5925C335.618 18.1362 335.976 17.778 336.432 17.534C336.889 17.29 337.341 17.16 338.589 17.16ZM338.589 18.16C337.602 18.16 337.258 18.2266 336.904 18.4158C336.622 18.5667 336.407 18.782 336.256 19.064C336.067 19.4179 336 19.7625 336 20.7495V25.0706C336 26.0576 336.067 26.4021 336.256 26.756C336.407 27.038 336.622 27.2534 336.904 27.4042C337.258 27.5935 337.602 27.66 338.589 27.66H353.411C354.398 27.66 354.742 27.5935 355.096 27.4042C355.378 27.2534 355.593 27.038 355.744 26.756C355.933 26.4021 356 26.0576 356 25.0706V20.7495C356 19.7625 355.933 19.4179 355.744 19.064C355.593 18.782 355.378 18.5667 355.096 18.4158C354.742 18.2266 354.398 18.16 353.411 18.16H338.589ZM359.5 22.85C359.5 24.0866 358 24.85 358 24.85V20.85C358 20.85 359.5 21.6135 359.5 22.85Z" fill="white" fill-opacity="0.36"/>
<rect x="337" y="19.0767" width="18" height="7.66667" rx="1.6" fill="white"/>
<path fill-rule="evenodd" clip-rule="evenodd" d="M306.623 18.566C306.6 18.6819 306.6 18.8213 306.6 19.1001V26.8001C306.6 27.0789 306.6 27.2183 306.623 27.3342C306.718 27.8102 307.09 28.1824 307.566 28.277C307.682 28.3001 307.821 28.3001 308.1 28.3001C308.379 28.3001 308.518 28.3001 308.634 28.277C309.11 28.1824 309.482 27.8102 309.577 27.3342C309.6 27.2183 309.6 27.0789 309.6 26.8001V19.1001C309.6 18.8213 309.6 18.6819 309.577 18.566C309.482 18.09 309.11 17.7178 308.634 17.6232C308.518 17.6001 308.379 17.6001 308.1 17.6001C307.821 17.6001 307.682 17.6001 307.566 17.6232C307.09 17.7178 306.718 18.09 306.623 18.566ZM301.9 21.5001C301.9 21.2213 301.9 21.0819 301.923 20.966C302.018 20.49 302.39 20.1178 302.866 20.0232C302.982 20.0001 303.121 20.0001 303.4 20.0001C303.679 20.0001 303.818 20.0001 303.934 20.0232C304.41 20.1178 304.782 20.49 304.877 20.966C304.9 21.0819 304.9 21.2213 304.9 21.5001V26.8001C304.9 27.0789 304.9 27.2183 304.877 27.3342C304.782 27.8102 304.41 28.1824 303.934 28.277C303.818 28.3001 303.679 28.3001 303.4 28.3001C303.121 28.3001 302.982 28.3001 302.866 28.277C302.39 28.1824 302.018 27.8102 301.923 27.3342C301.9 27.2183 301.9 27.0789 301.9 26.8001V21.5001ZM297.323 23.266C297.3 23.3819 297.3 23.5213 297.3 23.8001V26.8001C297.3 27.0789 297.3 27.2183 297.323 27.3342C297.418 27.8102 297.79 28.1824 298.266 28.277C298.382 28.3001 298.521 28.3001 298.8 28.3001C299.079 28.3001 299.218 28.3001 299.334 28.277C299.81 28.1824 300.182 27.8102 300.277 27.3342C300.3 27.2183 300.3 27.0789 300.3 26.8001V23.8001C300.3 23.5213 300.3 23.3819 300.277 23.266C300.182 22.79 299.81 22.4178 299.334 22.3232C299.218 22.3001 299.079 22.3001 298.8 22.3001C298.521 22.3001 298.382 22.3001 298.266 22.3232C297.79 22.4178 297.418 22.79 297.323 23.266ZM292.523 25.266C292.5 25.3819 292.5 25.5213 292.5 25.8001V26.8001C292.5 27.0789 292.5 27.2183 292.523 27.3342C292.618 27.8102 292.99 28.1824 293.466 28.277C293.582 28.3001 293.721 28.3001 294 28.3001C294.279 28.3001 294.418 28.3001 294.534 28.277C295.01 28.1824 295.382 27.8102 295.477 27.3342C295.5 27.2183 295.5 27.0789 295.5 26.8001V25.8001C295.5 25.5213 295.5 25.3819 295.477 25.266C295.382 24.79 295.01 24.4178 294.534 24.3232C294.418 24.3001 294.279 24.3001 294 24.3001C293.721 24.3001 293.582 24.3001 293.466 24.3232C292.99 24.4178 292.618 24.79 292.523 25.266Z" fill="white"/>
<path fill-rule="evenodd" clip-rule="evenodd" d="M322.301 19.6964C324.535 19.6965 326.684 20.555 328.303 22.0946C328.425 22.2135 328.62 22.212 328.74 22.0912L329.906 20.9148C329.967 20.8536 330.001 20.7706 330 20.6844C330 20.5981 329.965 20.5155 329.903 20.455C325.653 16.3817 318.947 16.3817 314.697 20.455C314.636 20.5155 314.601 20.598 314.6 20.6843C314.6 20.7706 314.633 20.8535 314.694 20.9148L315.86 22.0912C315.98 22.2121 316.175 22.2136 316.297 22.0946C317.917 20.5549 320.066 19.6964 322.301 19.6964ZM322.301 23.5238C323.528 23.5237 324.712 23.98 325.622 24.804C325.745 24.921 325.939 24.9185 326.059 24.7983L327.223 23.6219C327.285 23.5602 327.319 23.4765 327.318 23.3895C327.317 23.3025 327.281 23.2195 327.219 23.1591C324.447 20.5813 320.156 20.5813 317.385 23.1591C317.322 23.2195 317.286 23.3026 317.286 23.3896C317.285 23.4766 317.319 23.5603 317.38 23.6219L318.544 24.7983C318.664 24.9185 318.858 24.921 318.981 24.804C319.891 23.9806 321.074 23.5243 322.301 23.5238ZM324.538 26.3314C324.6 26.2703 324.635 26.1862 324.633 26.0989C324.631 26.0117 324.593 25.9291 324.529 25.8706C323.242 24.7827 321.359 24.7827 320.072 25.8706C320.008 25.929 319.97 26.0116 319.968 26.0989C319.966 26.1861 320 26.2702 320.063 26.3314L322.077 28.3639C322.136 28.4236 322.217 28.4572 322.301 28.4572C322.385 28.4572 322.465 28.4236 322.524 28.3639L324.538 26.3314Z" fill="white"/>
</svg>
