<svg width="505" height="104" viewBox="0 0 505 104" fill="none" xmlns="http://www.w3.org/2000/svg">
<path d="M7.67898 1.96707H1.52841V31.058H7.67898V1.96707ZM30.7791 15.4614C30.2393 11.4415 27.0007 8.95571 21.4893 8.95571C15.907 8.95571 12.228 11.5409 12.2422 15.7455C12.228 19.0125 14.2876 21.129 18.549 21.9813L22.3274 22.7341C24.2308 23.1176 25.0973 23.8137 25.1257 24.9074C25.0973 26.2 23.6911 27.1233 21.5746 27.1233C19.4155 27.1233 17.9808 26.2 17.6115 24.4245L11.6598 24.737C12.228 28.9131 15.7791 31.4841 21.5604 31.4841C27.2138 31.4841 31.2621 28.6006 31.2763 24.2966C31.2621 21.1432 29.2024 19.254 24.9695 18.3875L21.0206 17.5921C18.9893 17.1517 18.2365 16.4557 18.2507 15.4046C18.2365 14.0978 19.7138 13.2455 21.5888 13.2455C23.6911 13.2455 24.9411 14.3961 25.2393 15.8023L30.7791 15.4614ZM46.6918 9.2398H42.5866V4.01253H36.5355V9.2398H33.5526V13.7853H36.5355V25.1489C36.5071 29.4245 39.419 31.5409 43.8082 31.3563C45.3707 31.2995 46.4787 30.987 47.0895 30.7881L46.1378 26.2853C45.8395 26.3421 45.2003 26.4841 44.6321 26.4841C43.4247 26.4841 42.5866 26.0296 42.5866 24.3534V13.7853H46.6918V9.2398ZM56.8551 31.4699C60.0795 31.4699 62.1676 30.0637 63.233 28.0324H63.4034V31.058H69.142V16.3421C69.142 11.1432 64.7386 8.95571 59.8807 8.95571C54.6534 8.95571 51.2159 11.4557 50.3778 15.433L55.9744 15.8875C56.3864 14.4387 57.679 13.3733 59.8523 13.3733C61.9119 13.3733 63.0909 14.4103 63.0909 16.2V16.2853C63.0909 17.6915 61.5994 17.8762 57.8068 18.2455C53.4886 18.6432 49.6108 20.0921 49.6108 24.9642C49.6108 29.2824 52.6932 31.4699 56.8551 31.4699ZM58.5881 27.2938C56.7273 27.2938 55.392 26.4273 55.392 24.7654C55.392 23.0608 56.7983 22.2228 58.929 21.9245C60.25 21.7398 62.4091 21.4273 63.1335 20.9443V23.2597C63.1335 25.5466 61.2443 27.2938 58.5881 27.2938ZM79.8878 1.96707H73.8366V31.058H79.8878V1.96707ZM94.5646 39.6943C100.8 39.6943 105.232 36.8534 105.232 31.2711V9.2398H99.2237V12.9046H98.9964C98.1868 11.129 96.4112 8.95571 92.7607 8.95571C87.9737 8.95571 83.9254 12.6773 83.9254 20.1063C83.9254 27.3648 87.8601 30.7455 92.7749 30.7455C96.255 30.7455 98.201 28.9983 98.9964 27.1943H99.2521V31.1858C99.2521 34.183 97.3345 35.3478 94.7067 35.3478C92.0362 35.3478 90.6868 34.183 90.1896 32.862L84.593 33.6148C85.3175 37.0523 88.6839 39.6943 94.5646 39.6943ZM94.6925 26.2C91.7237 26.2 90.1044 23.8421 90.1044 20.0779C90.1044 16.3705 91.6953 13.7711 94.6925 13.7711C97.6328 13.7711 99.2805 16.2568 99.2805 20.0779C99.2805 23.9273 97.6044 26.2 94.6925 26.2ZM116.269 31.4699C119.494 31.4699 121.582 30.0637 122.647 28.0324H122.817V31.058H128.556V16.3421C128.556 11.1432 124.153 8.95571 119.295 8.95571C114.067 8.95571 110.63 11.4557 109.792 15.433L115.388 15.8875C115.8 14.4387 117.093 13.3733 119.266 13.3733C121.326 13.3733 122.505 14.4103 122.505 16.2V16.2853C122.505 17.6915 121.013 17.8762 117.221 18.2455C112.903 18.6432 109.025 20.0921 109.025 24.9642C109.025 29.2824 112.107 31.4699 116.269 31.4699ZM118.002 27.2938C116.141 27.2938 114.806 26.4273 114.806 24.7654C114.806 23.0608 116.212 22.2228 118.343 21.9245C119.664 21.7398 121.823 21.4273 122.548 20.9443V23.2597C122.548 25.5466 120.658 27.2938 118.002 27.2938ZM139.302 18.4443C139.316 15.6318 140.992 13.9841 143.435 13.9841C145.864 13.9841 147.327 15.575 147.313 18.2455V31.058H153.364V17.1659C153.364 12.0807 150.381 8.95571 145.836 8.95571C142.597 8.95571 140.254 10.5466 139.273 13.0892H139.018V9.2398H133.251V31.058H139.302V18.4443ZM187.732 9.2398H181.326L176.809 24.8506H176.582L172.05 9.2398H165.658L173.286 31.058H180.104L187.732 9.2398ZM196.425 31.4699C199.65 31.4699 201.738 30.0637 202.803 28.0324H202.974V31.058H208.712V16.3421C208.712 11.1432 204.309 8.95571 199.451 8.95571C194.224 8.95571 190.786 11.4557 189.948 15.433L195.545 15.8875C195.957 14.4387 197.249 13.3733 199.423 13.3733C201.482 13.3733 202.661 14.4103 202.661 16.2V16.2853C202.661 17.6915 201.17 17.8762 197.377 18.2455C193.059 18.6432 189.181 20.0921 189.181 24.9642C189.181 29.2824 192.263 31.4699 196.425 31.4699ZM198.158 27.2938C196.298 27.2938 194.962 26.4273 194.962 24.7654C194.962 23.0608 196.369 22.2228 198.499 21.9245C199.82 21.7398 201.979 21.4273 202.704 20.9443V23.2597C202.704 25.5466 200.815 27.2938 198.158 27.2938ZM233.876 39.2398V9.2398H227.91V12.9046H227.64C226.83 11.129 225.083 8.95571 221.433 8.95571C216.646 8.95571 212.597 12.6773 212.597 20.1773C212.597 27.4784 216.475 31.4131 221.447 31.4131C224.969 31.4131 226.802 29.3818 227.64 27.5637H227.825V39.2398H233.876ZM227.952 20.1489C227.952 24.0409 226.276 26.5978 223.364 26.5978C220.396 26.5978 218.776 23.9557 218.776 20.1489C218.776 16.3705 220.367 13.7711 223.364 13.7711C226.305 13.7711 227.952 16.2568 227.952 20.1489ZM250.325 9.2398H246.219V4.01253H240.168V9.2398H237.185V13.7853H240.168V25.1489C240.14 29.4245 243.052 31.5409 247.441 31.3563C249.004 31.2995 250.112 30.987 250.722 30.7881L249.771 26.2853C249.472 26.3421 248.833 26.4841 248.265 26.4841C247.058 26.4841 246.219 26.0296 246.219 24.3534V13.7853H250.325V9.2398ZM262.072 31.4131C265.594 31.4131 267.427 29.3818 268.265 27.5637H268.521V31.058H274.487V1.96707H268.45V12.9046H268.265C267.455 11.129 265.708 8.95571 262.058 8.95571C257.271 8.95571 253.222 12.6773 253.222 20.1773C253.222 27.4784 257.1 31.4131 262.072 31.4131ZM263.989 26.5978C261.021 26.5978 259.401 23.9557 259.401 20.1489C259.401 16.3705 260.992 13.7711 263.989 13.7711C266.93 13.7711 268.577 16.2568 268.577 20.1489C268.577 24.0409 266.901 26.5978 263.989 26.5978ZM285.683 31.4699C288.908 31.4699 290.996 30.0637 292.061 28.0324H292.232V31.058H297.97V16.3421C297.97 11.1432 293.567 8.95571 288.709 8.95571C283.482 8.95571 280.044 11.4557 279.206 15.433L284.803 15.8875C285.214 14.4387 286.507 13.3733 288.68 13.3733C290.74 13.3733 291.919 14.4103 291.919 16.2V16.2853C291.919 17.6915 290.428 17.8762 286.635 18.2455C282.317 18.6432 278.439 20.0921 278.439 24.9642C278.439 29.2824 281.521 31.4699 285.683 31.4699ZM287.416 27.2938C285.555 27.2938 284.22 26.4273 284.22 24.7654C284.22 23.0608 285.626 22.2228 287.757 21.9245C289.078 21.7398 291.237 21.4273 291.962 20.9443V23.2597C291.962 25.5466 290.072 27.2938 287.416 27.2938ZM323.528 9.2398H319.423V4.01253H313.371V9.2398H310.388V13.7853H313.371V25.1489C313.343 29.4245 316.255 31.5409 320.644 31.3563C322.207 31.2995 323.315 30.987 323.925 30.7881L322.974 26.2853C322.675 26.3421 322.036 26.4841 321.468 26.4841C320.261 26.4841 319.423 26.0296 319.423 24.3534V13.7853H323.528V9.2398ZM337.178 31.4841C342.576 31.4841 346.212 28.8563 347.065 24.808L341.468 24.4387C340.857 26.1006 339.295 26.9671 337.278 26.9671C334.252 26.9671 332.335 24.9642 332.335 21.7114V21.6972H347.192V20.0353C347.192 12.6205 342.704 8.95571 336.937 8.95571C330.516 8.95571 326.354 13.5154 326.354 20.2483C326.354 27.1659 330.46 31.4841 337.178 31.4841ZM332.335 17.9472C332.462 15.4614 334.352 13.4728 337.036 13.4728C339.664 13.4728 341.482 15.3478 341.496 17.9472H332.335ZM357.192 1.96707H351.141V31.058H357.192V1.96707ZM371.983 31.4841C377.381 31.4841 381.017 28.8563 381.869 24.808L376.273 24.4387C375.662 26.1006 374.099 26.9671 372.082 26.9671C369.057 26.9671 367.139 24.9642 367.139 21.7114V21.6972H381.997V20.0353C381.997 12.6205 377.509 8.95571 371.741 8.95571C365.321 8.95571 361.159 13.5154 361.159 20.2483C361.159 27.1659 365.264 31.4841 371.983 31.4841ZM367.139 17.9472C367.267 15.4614 369.156 13.4728 371.841 13.4728C374.469 13.4728 376.287 15.3478 376.301 17.9472H367.139ZM397.679 9.2398H393.347V7.77673C393.347 6.29946 393.943 5.43298 395.719 5.43298C396.443 5.43298 397.182 5.58923 397.665 5.74548L398.73 1.20003C397.977 0.972756 396.315 0.603436 394.455 0.603436C390.349 0.603436 387.295 2.91878 387.295 7.6631V9.2398H384.213V13.7853H387.295V31.058H393.347V13.7853H397.679V9.2398ZM410.452 31.4841C417.072 31.4841 421.191 26.9529 421.191 20.2341C421.191 13.4728 417.072 8.95571 410.452 8.95571C403.833 8.95571 399.714 13.4728 399.714 20.2341C399.714 26.9529 403.833 31.4841 410.452 31.4841ZM410.481 26.7966C407.427 26.7966 405.864 23.9983 405.864 20.1915C405.864 16.3847 407.427 13.5722 410.481 13.5722C413.478 13.5722 415.04 16.3847 415.04 20.1915C415.04 23.9983 413.478 26.7966 410.481 26.7966ZM431.177 18.4443C431.191 15.6318 432.867 13.9841 435.31 13.9841C437.739 13.9841 439.202 15.575 439.188 18.2455V31.058H445.239V17.1659C445.239 12.0807 442.256 8.95571 437.711 8.95571C434.472 8.95571 432.129 10.5466 431.148 13.0892H430.893V9.2398H425.126V31.058H431.177V18.4443ZM21.8835 103.24V73.2398H15.9176V76.9046H15.6477C14.8381 75.129 13.0909 72.9557 9.44034 72.9557C4.65341 72.9557 0.605114 76.6773 0.605114 84.1773C0.605114 91.4784 4.48295 95.4131 9.45455 95.4131C12.9773 95.4131 14.8097 93.3818 15.6477 91.5637H15.8324V103.24H21.8835ZM15.9602 84.1489C15.9602 88.0409 14.2841 90.5978 11.3722 90.5978C8.40341 90.5978 6.78409 87.9557 6.78409 84.1489C6.78409 80.3705 8.375 77.7711 11.3722 77.7711C14.3125 77.7711 15.9602 80.2568 15.9602 84.1489ZM26.7273 95.058H32.7784V73.2398H26.7273V95.058ZM29.767 70.4273C31.571 70.4273 33.0483 69.0495 33.0483 67.3591C33.0483 65.683 31.571 64.3051 29.767 64.3051C27.9773 64.3051 26.5 65.683 26.5 67.3591C26.5 69.0495 27.9773 70.4273 29.767 70.4273ZM43.6768 65.9671H37.6257V95.058H43.6768V65.9671ZM48.5241 95.058H54.5753V73.2398H48.5241V95.058ZM51.5639 70.4273C53.3679 70.4273 54.8452 69.0495 54.8452 67.3591C54.8452 65.683 53.3679 64.3051 51.5639 64.3051C49.7741 64.3051 48.2969 65.683 48.2969 67.3591C48.2969 69.0495 49.7741 70.4273 51.5639 70.4273ZM65.4737 82.4443C65.4879 79.6318 67.1641 77.9841 69.6072 77.9841C72.0362 77.9841 73.4993 79.575 73.4851 82.2455V95.058H79.5362V81.1659C79.5362 76.0807 76.5533 72.9557 72.0078 72.9557C68.7692 72.9557 66.4254 74.5466 65.4453 77.0892H65.1896V73.2398H59.4226V95.058H65.4737V82.4443ZM94.1349 103.694C100.371 103.694 104.803 100.853 104.803 95.2711V73.2398H98.794V76.9046H98.5668C97.7571 75.129 95.9815 72.9557 92.331 72.9557C87.544 72.9557 83.4957 76.6773 83.4957 84.1063C83.4957 91.3648 87.4304 94.7455 92.3452 94.7455C95.8253 94.7455 97.7713 92.9983 98.5668 91.1943H98.8224V95.1858C98.8224 98.183 96.9048 99.3478 94.277 99.3478C91.6065 99.3478 90.2571 98.183 89.7599 96.862L84.1634 97.6148C84.8878 101.052 88.2543 103.694 94.1349 103.694ZM94.2628 90.2C91.294 90.2 89.6747 87.8421 89.6747 84.0779C89.6747 80.3705 91.2656 77.7711 94.2628 77.7711C97.2031 77.7711 98.8509 80.2568 98.8509 84.0779C98.8509 87.9273 97.1747 90.2 94.2628 90.2ZM113.155 80.1574C114.973 80.1574 116.55 78.6375 116.564 76.7483C116.55 74.8875 114.973 73.3676 113.155 73.3676C111.28 73.3676 109.732 74.8875 109.746 76.7483C109.732 78.6375 111.28 80.1574 113.155 80.1574ZM113.155 95.4273C114.973 95.4273 116.55 93.9074 116.564 92.0182C116.55 90.1574 114.973 88.6375 113.155 88.6375C111.28 88.6375 109.732 90.1574 109.746 92.0182C109.732 93.9074 111.28 95.4273 113.155 95.4273Z" fill="white"/>
<path d="M139.426 93.4813H144.511V85.9671H152.026V80.8818H144.511V73.3676H139.426V80.8818H131.912V85.9671H139.426V93.4813ZM168.446 65.5693C161.94 65.5409 157.551 69.8023 157.58 75.6546C157.594 81.0807 161.358 85.0154 166.514 85.0154C169.71 85.0154 172.551 83.4671 173.844 80.9103H174.043C174.028 86.6773 172.026 90.1858 168.233 90.1858C166.003 90.1858 164.398 88.9642 163.929 86.8478H157.864C158.432 91.7483 162.409 95.4557 168.233 95.4557C175.435 95.4557 180.08 89.6318 180.065 79.7597C180.051 69.2199 174.426 65.5978 168.446 65.5693ZM168.489 70.3989C171.315 70.3989 173.403 72.7 173.432 75.4699C173.446 78.254 171.244 80.5551 168.432 80.5551C165.591 80.5551 163.56 78.3392 163.545 75.4841C163.517 72.6432 165.634 70.3989 168.489 70.3989ZM194.852 65.5693C188.347 65.5409 183.957 69.8023 183.986 75.6546C184 81.0807 187.764 85.0154 192.92 85.0154C196.116 85.0154 198.957 83.4671 200.25 80.9103H200.449C200.435 86.6773 198.432 90.1858 194.639 90.1858C192.409 90.1858 190.804 88.9642 190.335 86.8478H184.27C184.838 91.7483 188.815 95.4557 194.639 95.4557C201.841 95.4557 206.486 89.6318 206.472 79.7597C206.457 69.2199 200.832 65.5978 194.852 65.5693ZM194.895 70.3989C197.722 70.3989 199.81 72.7 199.838 75.4699C199.852 78.254 197.651 80.5551 194.838 80.5551C191.997 80.5551 189.966 78.3392 189.952 75.4841C189.923 72.6432 192.04 70.3989 194.895 70.3989ZM221.585 95.4557C228.148 95.4557 232.864 91.9472 232.878 87.2313C232.864 83.5949 230.065 80.6262 226.571 80.0438V79.8449C229.611 79.2199 231.784 76.5921 231.798 73.3961C231.784 68.8932 227.466 65.5693 221.585 65.5693C215.69 65.5693 211.372 68.8932 211.386 73.3961C211.372 76.5779 213.517 79.2199 216.614 79.8449V80.0438C213.062 80.6262 210.293 83.5949 210.307 87.2313C210.293 91.9472 215.023 95.4557 221.585 95.4557ZM221.585 90.9387C218.659 90.9387 216.699 89.2057 216.699 86.7483C216.699 84.2341 218.759 82.4159 221.585 82.4159C224.398 82.4159 226.472 84.2341 226.472 86.7483C226.472 89.2199 224.497 90.9387 221.585 90.9387ZM221.585 77.9415C219.128 77.9415 217.381 76.3364 217.381 74.0353C217.381 71.7625 219.099 70.2 221.585 70.2C224.057 70.2 225.79 71.7767 225.79 74.0353C225.79 76.3364 224.028 77.9415 221.585 77.9415ZM257.288 95.4557C263.851 95.4557 268.567 91.9472 268.581 87.2313C268.567 83.5949 265.768 80.6262 262.274 80.0438V79.8449C265.314 79.2199 267.487 76.5921 267.501 73.3961C267.487 68.8932 263.169 65.5693 257.288 65.5693C251.393 65.5693 247.075 68.8932 247.089 73.3961C247.075 76.5779 249.22 79.2199 252.317 79.8449V80.0438C248.766 80.6262 245.996 83.5949 246.01 87.2313C245.996 91.9472 250.726 95.4557 257.288 95.4557ZM257.288 90.9387C254.362 90.9387 252.402 89.2057 252.402 86.7483C252.402 84.2341 254.462 82.4159 257.288 82.4159C260.101 82.4159 262.175 84.2341 262.175 86.7483C262.175 89.2199 260.2 90.9387 257.288 90.9387ZM257.288 77.9415C254.831 77.9415 253.084 76.3364 253.084 74.0353C253.084 71.7625 254.803 70.2 257.288 70.2C259.76 70.2 261.493 71.7767 261.493 74.0353C261.493 76.3364 259.732 77.9415 257.288 77.9415ZM283.734 95.4557C290.296 95.4557 295.012 91.9472 295.026 87.2313C295.012 83.5949 292.214 80.6262 288.719 80.0438V79.8449C291.759 79.2199 293.933 76.5921 293.947 73.3961C293.933 68.8932 289.614 65.5693 283.734 65.5693C277.839 65.5693 273.521 68.8932 273.535 73.3961C273.521 76.5779 275.665 79.2199 278.762 79.8449V80.0438C275.211 80.6262 272.441 83.5949 272.455 87.2313C272.441 91.9472 277.171 95.4557 283.734 95.4557ZM283.734 90.9387C280.808 90.9387 278.847 89.2057 278.847 86.7483C278.847 84.2341 280.907 82.4159 283.734 82.4159C286.546 82.4159 288.62 84.2341 288.62 86.7483C288.62 89.2199 286.646 90.9387 283.734 90.9387ZM283.734 77.9415C281.276 77.9415 279.529 76.3364 279.529 74.0353C279.529 71.7625 281.248 70.2 283.734 70.2C286.205 70.2 287.938 71.7767 287.938 74.0353C287.938 76.3364 286.177 77.9415 283.734 77.9415ZM319.437 95.4557C325.999 95.4557 330.715 91.9472 330.729 87.2313C330.715 83.5949 327.917 80.6262 324.423 80.0438V79.8449C327.462 79.2199 329.636 76.5921 329.65 73.3961C329.636 68.8932 325.317 65.5693 319.437 65.5693C313.542 65.5693 309.224 68.8932 309.238 73.3961C309.224 76.5779 311.369 79.2199 314.465 79.8449V80.0438C310.914 80.6262 308.144 83.5949 308.158 87.2313C308.144 91.9472 312.874 95.4557 319.437 95.4557ZM319.437 90.9387C316.511 90.9387 314.55 89.2057 314.55 86.7483C314.55 84.2341 316.61 82.4159 319.437 82.4159C322.249 82.4159 324.323 84.2341 324.323 86.7483C324.323 89.2199 322.349 90.9387 319.437 90.9387ZM319.437 77.9415C316.979 77.9415 315.232 76.3364 315.232 74.0353C315.232 71.7625 316.951 70.2 319.437 70.2C321.908 70.2 323.641 71.7767 323.641 74.0353C323.641 76.3364 321.88 77.9415 319.437 77.9415ZM345.555 65.5693C339.05 65.5409 334.661 69.8023 334.689 75.6546C334.703 81.0807 338.467 85.0154 343.624 85.0154C346.82 85.0154 349.661 83.4671 350.953 80.9103H351.152C351.138 86.6773 349.135 90.1858 345.342 90.1858C343.112 90.1858 341.507 88.9642 341.038 86.8478H334.973C335.541 91.7483 339.518 95.4557 345.342 95.4557C352.544 95.4557 357.189 89.6318 357.175 79.7597C357.161 69.2199 351.536 65.5978 345.555 65.5693ZM345.598 70.3989C348.425 70.3989 350.513 72.7 350.541 75.4699C350.555 78.254 348.354 80.5551 345.541 80.5551C342.7 80.5551 340.669 78.3392 340.655 75.4841C340.626 72.6432 342.743 70.3989 345.598 70.3989ZM372.842 95.6972C380.158 95.6972 384.575 90.129 384.589 80.5409C384.604 71.0239 380.129 65.5693 372.842 65.5693C365.541 65.5693 361.109 71.0097 361.095 80.5409C361.067 90.1006 365.513 95.683 372.842 95.6972ZM372.842 90.5978C369.504 90.5978 367.345 87.2455 367.359 80.5409C367.374 73.9358 369.518 70.612 372.842 70.612C376.152 70.612 378.311 73.9358 378.311 80.5409C378.325 87.2455 376.166 90.5978 372.842 90.5978ZM408.759 65.5693C402.253 65.5409 397.864 69.8023 397.892 75.6546C397.906 81.0807 401.67 85.0154 406.827 85.0154C410.023 85.0154 412.864 83.4671 414.156 80.9103H414.355C414.341 86.6773 412.338 90.1858 408.545 90.1858C406.315 90.1858 404.71 88.9642 404.241 86.8478H398.176C398.744 91.7483 402.722 95.4557 408.545 95.4557C415.747 95.4557 420.392 89.6318 420.378 79.7597C420.364 69.2199 414.739 65.5978 408.759 65.5693ZM408.801 70.3989C411.628 70.3989 413.716 72.7 413.744 75.4699C413.759 78.254 411.557 80.5551 408.744 80.5551C405.903 80.5551 403.872 78.3392 403.858 75.4841C403.83 72.6432 405.946 70.3989 408.801 70.3989ZM436.045 95.6972C443.361 95.6972 447.778 90.129 447.793 80.5409C447.807 71.0239 443.332 65.5693 436.045 65.5693C428.744 65.5693 424.312 71.0097 424.298 80.5409C424.27 90.1006 428.716 95.683 436.045 95.6972ZM436.045 90.5978C432.707 90.5978 430.548 87.2455 430.562 80.5409C430.577 73.9358 432.722 70.612 436.045 70.612C439.355 70.612 441.514 73.9358 441.514 80.5409C441.528 87.2455 439.369 90.5978 436.045 90.5978ZM474.092 65.9671H468.311L461.109 70.5267V75.9813L467.771 71.8051H467.942V95.058H474.092V65.9671ZM492.413 95.6972C499.728 95.6972 504.146 90.129 504.16 80.5409C504.174 71.0239 499.7 65.5693 492.413 65.5693C485.112 65.5693 480.68 71.0097 480.665 80.5409C480.637 90.1006 485.083 95.683 492.413 95.6972ZM492.413 90.5978C489.075 90.5978 486.915 87.2455 486.93 80.5409C486.944 73.9358 489.089 70.612 492.413 70.612C495.722 70.612 497.881 73.9358 497.881 80.5409C497.896 87.2455 495.737 90.5978 492.413 90.5978Z" fill="#FF6B00"/>
</svg>
