<svg width="155" height="47" viewBox="0 0 155 47" fill="none" xmlns="http://www.w3.org/2000/svg">
<g clip-path="url(#clip0_687_248)">
<path d="M69.2196 17.017V14.8489H74.0326V33.2224H69.2196V31.0542C67.7761 32.8425 65.7487 33.737 63.1376 33.7378C60.6516 33.7378 58.5123 32.8065 56.7199 30.9441C54.954 29.0579 54.071 26.7551 54.071 24.0356C54.071 21.3423 54.954 19.0517 56.7199 17.164C58.5115 15.2778 60.6507 14.3343 63.1376 14.3335C65.7496 14.3335 67.7769 15.228 69.2196 17.017ZM60.3396 27.7904C61.3091 28.7453 62.5405 29.2228 64.0338 29.2228C65.5271 29.2228 66.7581 28.7453 67.7268 27.7904C68.7212 26.811 69.2184 25.5615 69.2184 24.0418C69.2184 22.5221 68.7212 21.2848 67.7268 20.3298C66.7572 19.3505 65.5262 18.8608 64.0338 18.8608C62.5414 18.8608 61.3099 19.3505 60.3396 20.3298C59.3692 21.2864 58.884 22.5237 58.884 24.0418C58.884 25.5598 59.3692 26.8094 60.3396 27.7904Z" fill="white"/>
<path d="M83.211 33.2224H78.3981V6.39551H83.211V33.2224Z" fill="white"/>
<path d="M98.285 14.8489V19.4055H94.0688V27.0485C94.0688 27.6859 94.2308 28.1515 94.5548 28.4453C94.8767 28.7392 95.3503 28.9044 95.9718 28.9412C96.7426 28.9777 97.5149 28.9716 98.285 28.9228V33.2223C95.0267 33.5896 92.7064 33.2897 91.3242 32.3225C89.942 31.3554 89.2517 29.5973 89.2533 27.0485V19.4055H86.0165V14.8489H89.262V11.1406L94.075 9.70703V14.8489H98.285Z" fill="white"/>
<path d="M119.255 25.9834H105.189C105.809 28.2866 107.563 29.4378 110.449 29.437C112.29 29.437 113.683 28.8249 114.628 27.6006L118.509 29.8043C116.668 32.4266 113.959 33.7378 110.38 33.7378C107.294 33.7378 104.819 32.8188 102.954 30.9808C101.088 29.1428 100.156 26.8277 100.156 24.0356C100.156 21.2917 101.076 18.9889 102.916 17.1272C104.733 15.2647 107.095 14.3335 110.002 14.3335C112.762 14.3335 115.013 15.2647 116.755 17.1272C118.547 18.9897 119.442 21.2925 119.441 24.0356C119.428 24.6886 119.366 25.3397 119.255 25.9834ZM105.113 22.3107H114.628C114.355 21.1109 113.801 20.1923 112.967 19.5549C112.12 18.913 111.076 18.5749 110.007 18.5963C108.712 18.5963 107.642 18.9228 106.797 19.5757C105.952 20.2286 105.391 21.1395 105.113 22.3082V22.3107Z" fill="white"/>
<path d="M133.171 14.3335C135.237 14.3335 136.916 15.0072 138.209 16.3547C139.552 17.7275 140.223 19.5896 140.224 21.941V33.2224H135.411V22.5261C135.411 21.3264 135.08 20.3956 134.417 19.7336C133.754 19.0717 132.852 18.7408 131.712 18.7408C130.443 18.7408 129.441 19.1268 128.708 19.8989C127.974 20.671 127.608 21.8038 127.608 23.2974V33.2199H122.8V14.8489H127.613V16.9056C128.756 15.1917 130.609 14.3343 133.171 14.3335Z" fill="white"/>
<path d="M155.004 14.8489V19.4055H150.787V27.0485C150.787 27.6863 150.948 28.1503 151.272 28.4453C151.597 28.7404 152.068 28.9044 152.689 28.9412C153.46 28.9777 154.233 28.9716 155.004 28.9228V33.2223C151.745 33.5896 149.424 33.2897 148.043 32.3225C146.661 31.3554 145.971 29.5973 145.972 27.0485V19.4055H142.727V14.8489H145.972V11.1406L150.786 9.70703V14.8489H155.004Z" fill="white"/>
<path d="M5.7825 24.2144L0 29.9096H13.3425L0.883782 42.1777V42.1802L5.7825 47H17.3512V41.3036H9.95281L17.3512 34.0157V41.3036H23.1362V24.2119L5.7825 24.2144Z" fill="#FFA600"/>
<path d="M41.9368 22.7869L47.7193 17.0905H34.3768L46.8355 4.8223V4.81985L41.9368 0H30.3681V5.69641H37.7665L30.3681 12.9843V5.69641H24.5831V22.7881L41.9368 22.7869Z" fill="#FFA600"/>
<path d="M57.1575 39.3571H58.4005V45.7231H62.3993V46.8604H57.1575V39.3571Z" fill="white"/>
<path d="M63.0792 44.2883C63.0733 43.8744 63.1546 43.4638 63.3178 43.0824C63.4559 42.7512 63.6724 42.4573 63.9493 42.2254C64.2031 42.0201 64.49 41.8583 64.7983 41.7467C65.0939 41.6371 65.4072 41.5807 65.7231 41.5802C66.0926 41.5754 66.46 41.6372 66.807 41.7626C67.1011 41.8648 67.3674 42.0324 67.5851 42.2523C67.7838 42.4637 67.9455 42.7062 68.0637 42.9697C68.1869 43.2395 68.2536 43.531 68.26 43.8267C68.2664 44.1269 68.2406 44.4268 68.183 44.7216H64.2538C64.2752 44.9245 64.3457 45.1194 64.4595 45.2898C64.5733 45.4603 64.727 45.6013 64.9076 45.701C65.3177 45.9282 65.7823 46.0424 66.2526 46.0316C66.8253 46.0355 67.3914 45.9099 67.907 45.6643V46.6437C67.4098 46.8796 66.7858 46.9975 66.0351 46.9975C65.1865 46.9975 64.4821 46.7616 63.9219 46.2899C63.3618 45.8181 63.0808 45.1509 63.0792 44.2883ZM67.1389 43.8598C67.1578 43.7017 67.1441 43.5415 67.0986 43.3887C67.0531 43.236 66.9767 43.0939 66.8741 42.971C66.6528 42.6731 66.2882 42.5245 65.7802 42.5253C65.395 42.5156 65.0188 42.641 64.7187 42.8791C64.572 42.9984 64.4536 43.1479 64.372 43.3171C64.2904 43.4864 64.2475 43.6712 64.2464 43.8585L67.1389 43.8598Z" fill="white"/>
<path d="M69.968 40.1613L71.1215 39.8822V41.7186H73.0158V42.7261H71.1215V45.084C71.1215 45.4133 71.1998 45.6447 71.3564 45.7806C71.513 45.9165 71.7641 45.9851 72.1122 45.9851C72.4739 45.9836 72.8321 45.9142 73.1675 45.7806V46.7661C72.7165 46.9209 72.2416 46.9971 71.7641 46.9914C71.2271 46.9914 70.7933 46.8518 70.4627 46.5727C70.132 46.2936 69.9663 45.8683 69.9655 45.297V42.7261H69.0295V41.7186H69.9655L69.968 40.1613Z" fill="white"/>
<path d="M75.0506 41.4799H74.234V39.3571H75.3005L75.0506 41.4799Z" fill="white"/>
<path d="M76.183 43.1093C76.183 42.5878 76.3844 42.2017 76.7871 41.9512C77.2321 41.6902 77.7437 41.5602 78.2613 41.5766C78.9158 41.572 79.5617 41.7227 80.1445 42.0161V43.0236C79.8849 42.862 79.6014 42.741 79.3042 42.6649C78.9895 42.572 78.6632 42.523 78.3347 42.5192C78.099 42.5127 77.8649 42.5588 77.6498 42.6539C77.5642 42.6874 77.4911 42.7461 77.4405 42.8218C77.3898 42.8976 77.3639 42.9868 77.3664 43.0775C77.3664 43.2562 77.4745 43.4044 77.6933 43.5219C77.9435 43.6544 78.2089 43.7571 78.4838 43.8279C78.7921 43.9096 79.0987 44.0063 79.4037 44.1181C79.7025 44.2241 79.9713 44.3987 80.188 44.6274C80.4084 44.8632 80.5254 45.1751 80.5137 45.4954C80.5137 46.0242 80.3036 46.4082 79.8835 46.6474C79.4633 46.8865 78.9247 47.0061 78.2675 47.0061C77.4472 47.0061 76.7652 46.8428 76.2216 46.5164V45.4978C76.8143 45.8712 77.507 46.0613 78.2104 46.0438C78.9653 46.0438 79.3427 45.8688 79.3427 45.5186C79.3427 45.3472 79.2338 45.2028 79.0158 45.0852C78.7657 44.9546 78.5008 44.8535 78.2265 44.7841C77.9183 44.7021 77.605 44.6066 77.3017 44.4952C77.0001 44.3895 76.7292 44.213 76.5124 43.981C76.2905 43.7444 76.1721 43.4312 76.183 43.1093Z" fill="white"/>
<path d="M85.7381 46.8617H84.5734V41.7199H85.6076V42.3589C85.8209 42.1099 86.0876 41.9106 86.3885 41.7754C86.6894 41.6401 87.017 41.5722 87.3478 41.5766C88.1019 41.5766 88.6459 41.8517 88.9798 42.4018C89.5392 41.8517 90.1487 41.5766 90.8083 41.5766C91.4679 41.5766 91.9614 41.7766 92.2887 42.1765C92.6263 42.5925 92.8026 43.1133 92.7859 43.6456V46.8617H91.6212V43.6786C91.6359 43.3904 91.5365 43.1078 91.344 42.8902C91.2464 42.7909 91.1284 42.7134 90.9978 42.6627C90.8673 42.612 90.7272 42.5894 90.5871 42.5964C90.1164 42.5964 89.6846 42.8286 89.2918 43.293C89.3068 43.4497 89.3142 43.5685 89.3142 43.6468V46.8629H88.1545V43.6799C88.1686 43.3917 88.0693 43.1093 87.8773 42.8915C87.7797 42.7922 87.6616 42.7146 87.5311 42.6639C87.4005 42.6132 87.2604 42.5906 87.1203 42.5976C86.6231 42.5976 86.1623 42.8621 85.7381 43.3909V46.8617Z" fill="white"/>
<path d="M98.8643 45.6717C98.8643 45.9214 98.9911 46.0463 99.2447 46.0463C99.3631 46.041 99.4802 46.0196 99.5927 45.9826V46.8078C99.3548 46.8975 99.1016 46.9412 98.8469 46.9363C98.3248 46.9363 97.9764 46.7359 97.8015 46.3352C97.2458 46.7768 96.5503 47.0121 95.8363 47C95.3692 47.0133 94.9118 46.8676 94.5411 46.5874C94.1856 46.3132 94.0078 45.9255 94.0078 45.4244C94.0078 44.8245 94.2366 44.387 94.694 44.112C95.1915 43.8291 95.7593 43.6883 96.3335 43.7055C96.7933 43.7086 97.2515 43.7586 97.7008 43.8549V43.6725C97.7059 43.5221 97.6762 43.3725 97.614 43.2351C97.5518 43.0976 97.4586 42.9759 97.3416 42.8791C97.1017 42.6796 96.7649 42.5792 96.3286 42.5792C95.6799 42.5782 95.0382 42.7117 94.4454 42.971V41.9206C95.0891 41.6982 95.7657 41.5823 96.4479 41.5778C97.2103 41.5778 97.8032 41.7634 98.2266 42.1348C98.6501 42.5062 98.8626 43.0705 98.8643 43.8279V45.6717ZM96.5672 44.5025C96.2323 44.4919 95.8999 44.5621 95.5989 44.7069C95.4767 44.7643 95.3744 44.8559 95.3048 44.9702C95.2352 45.0845 95.2013 45.2165 95.2074 45.3497C95.2021 45.4594 95.2253 45.5686 95.2747 45.6671C95.324 45.7656 95.3979 45.8502 95.4895 45.9128C95.6948 46.0499 95.939 46.1193 96.1869 46.1112C96.4681 46.1163 96.7474 46.0646 97.0076 45.9593C97.2677 45.854 97.5032 45.6974 97.6996 45.499V44.631C97.3275 44.5508 96.9481 44.5077 96.5672 44.5025Z" fill="white"/>
<path d="M105.677 46.8617H104.338L102.618 44.7278H101.78V46.8617H100.616V39.3571H101.78V43.7521H102.641L104.142 41.7162H105.47L103.577 44.2675L105.677 46.8617Z" fill="white"/>
<path d="M106.058 44.2883C106.052 43.8742 106.133 43.4635 106.297 43.0824C106.435 42.7507 106.651 42.4566 106.929 42.2254C107.182 42.0189 107.469 41.8558 107.777 41.7431C108.073 41.6336 108.386 41.5772 108.703 41.5766C109.072 41.5717 109.439 41.6335 109.785 41.759C110.08 41.8609 110.346 42.0285 110.563 42.2487C110.763 42.4597 110.924 42.7022 111.042 42.9661C111.165 43.2359 111.232 43.5273 111.238 43.823C111.245 44.1232 111.22 44.4231 111.163 44.718H107.233C107.254 44.9209 107.324 45.1158 107.438 45.2863C107.552 45.4568 107.705 45.5978 107.886 45.6974C108.297 45.9267 108.764 46.0421 109.236 46.0316C109.809 46.0352 110.375 45.9096 110.89 45.6643V46.6437C110.393 46.8796 109.769 46.9975 109.018 46.9975C108.17 46.9975 107.466 46.7616 106.905 46.2899C106.345 45.8182 106.063 45.1509 106.058 44.2883ZM110.117 43.8598C110.135 43.7024 110.121 43.5431 110.075 43.3913C110.029 43.2395 109.953 43.0982 109.851 42.9759C109.629 42.678 109.265 42.5294 108.757 42.5302C108.372 42.5203 107.996 42.6458 107.696 42.8841C107.549 43.0031 107.43 43.1525 107.348 43.3218C107.266 43.491 107.223 43.676 107.222 43.8635L110.117 43.8598Z" fill="white"/>
<path d="M115.548 39.3571H116.791V46.8617H115.548V39.3571Z" fill="white"/>
<path d="M118.086 39.3571H124.366V40.4834H121.85V46.8617H120.607V40.4834H118.086V39.3571Z" fill="white"/>
<path d="M132.069 39.3571H133.234V46.8617H132.189V46.0463C131.957 46.3512 131.654 46.5969 131.306 46.7628C130.957 46.9287 130.574 47.01 130.187 47C129.835 47.0122 129.485 46.9479 129.162 46.8119C128.838 46.6758 128.549 46.4713 128.315 46.2128C127.851 45.6756 127.597 44.9935 127.597 44.2883C127.597 43.5832 127.851 42.901 128.315 42.3638C128.549 42.1053 128.838 41.9008 129.162 41.7647C129.485 41.6287 129.835 41.5645 130.187 41.5766C130.97 41.5766 131.597 41.8447 132.069 42.3809V39.3571ZM132.058 43.6566C131.916 43.3501 131.693 43.087 131.411 42.8951C131.114 42.6872 130.758 42.5783 130.393 42.5842C130.176 42.5776 129.96 42.6168 129.759 42.6992C129.558 42.7815 129.377 42.9051 129.229 43.0616C128.933 43.4044 128.771 43.8393 128.771 44.2889C128.771 44.7385 128.933 45.1735 129.229 45.5162C129.377 45.6726 129.558 45.796 129.759 45.8781C129.96 45.9603 130.176 45.9992 130.393 45.9925C130.758 45.9989 131.115 45.8899 131.411 45.6815C131.694 45.4875 131.918 45.2207 132.058 44.9102V43.6566Z" fill="white"/>
<path d="M135.416 46.2825C134.861 45.8034 134.583 45.1387 134.583 44.2882C134.583 43.4378 134.861 42.773 135.416 42.2939C135.976 41.8301 136.685 41.5758 137.416 41.5758C138.148 41.5758 138.856 41.8301 139.416 42.2939C139.967 42.7738 140.242 43.4386 140.243 44.2882C140.244 45.1379 139.968 45.8026 139.416 46.2825C138.856 46.7464 138.148 47.0007 137.416 47.0007C136.685 47.0007 135.976 46.7464 135.416 46.2825ZM138.6 45.4941C138.895 45.1598 139.058 44.7315 139.058 44.2882C139.058 43.845 138.895 43.4167 138.6 43.0824C138.274 42.7893 137.849 42.6269 137.408 42.6269C136.966 42.6269 136.541 42.7893 136.216 43.0824C135.921 43.4172 135.759 43.8453 135.759 44.2882C135.759 44.7312 135.921 45.1592 136.216 45.4941C136.541 45.7871 136.966 45.9496 137.408 45.9496C137.849 45.9496 138.274 45.7871 138.6 45.4941Z" fill="white"/>
<path d="M142.626 42.4238C142.843 42.1545 143.119 41.938 143.435 41.7911C143.75 41.6442 144.096 41.5708 144.444 41.5766C145.097 41.5766 145.619 41.7713 146.011 42.1606C146.402 42.5499 146.598 43.0555 146.598 43.6774V46.8605H145.433V43.828C145.433 43.4281 145.32 43.1224 145.094 42.911C144.855 42.6949 144.538 42.5812 144.213 42.5952C143.64 42.5952 143.154 42.8808 142.755 43.4522V46.8617H141.59V41.7199H142.623L142.626 42.4238Z" fill="white"/>
<path d="M147.884 44.2883C147.878 43.8744 147.959 43.4638 148.122 43.0824C148.26 42.7509 148.477 42.457 148.754 42.2254C149.007 42.0188 149.294 41.8558 149.603 41.7431C149.899 41.6335 150.212 41.5771 150.528 41.5766C150.897 41.5716 151.264 41.6334 151.61 41.759C151.905 41.8609 152.172 42.0285 152.39 42.2487C152.588 42.4604 152.75 42.7028 152.868 42.9661C152.991 43.236 153.057 43.5274 153.063 43.8231C153.071 44.1232 153.045 44.4232 152.988 44.718H149.058C149.08 44.9209 149.15 45.1158 149.264 45.2862C149.378 45.4566 149.532 45.5977 149.712 45.6974C150.124 45.924 150.59 46.0369 151.061 46.0243C151.634 46.0282 152.2 45.9026 152.715 45.657V46.6364C152.218 46.8723 151.594 46.9902 150.843 46.9902C149.995 46.9902 149.29 46.7543 148.73 46.2826C148.17 45.8108 147.888 45.1461 147.884 44.2883ZM151.943 43.8598C151.961 43.7023 151.947 43.543 151.901 43.3912C151.855 43.2394 151.778 43.0982 151.676 42.9759C151.455 42.678 151.09 42.5294 150.582 42.5303C150.197 42.5206 149.821 42.646 149.521 42.8841C149.374 43.0035 149.256 43.153 149.174 43.3222C149.092 43.4913 149.049 43.6761 149.047 43.8635L151.943 43.8598Z" fill="white"/>
</g>
<defs>
<clipPath id="clip0_687_248">
<rect width="155" height="47" fill="white"/>
</clipPath>
</defs>
</svg>
